<svg version="1.1" xmlns="http://www.w3.org/2000/svg" xmlns:xlink="http://www.w3.org/1999/xlink" width="24px" height="24px" viewBox="0,0,256,256"><g fill="#ffffff" fill-rule="nonzero" stroke="none" stroke-width="1" stroke-linecap="butt" stroke-linejoin="miter" stroke-miterlimit="10" stroke-dasharray="" stroke-dashoffset="0" font-family="none" font-weight="none" font-size="none" text-anchor="none" style="mix-blend-mode: normal"><g transform="translate(0.00001,0.02488) scale(10.66667,10.66667)"><path d="M1,12c-0.00172,-4.01063 2.1795,-7.70433 5.69237,-9.63951c3.51287,-1.93518 7.80055,-1.80508 11.18963,0.33951l1.411,-1.41c0.28638,-0.2863 0.71715,-0.37162 1.09104,-0.21611c0.37389,0.15551 0.61709,0.52117 0.61596,0.92611v4c0,0.55228 -0.44772,1 -1,1h-4c-0.4044,-0.00009 -0.76893,-0.24373 -0.92368,-0.61735c-0.15474,-0.37362 -0.06923,-0.80366 0.21668,-1.08965l1.128,-1.128c-2.78544,-1.57505 -6.19797,-1.55155 -8.96144,0.06173c-2.76347,1.61328 -4.46168,4.57335 -4.45956,7.77327c0,0.55228 -0.44772,1 -1,1c-0.55228,0 -1,-0.44772 -1,-1zM22,11c-0.55228,0 -1,0.44772 -1,1c-0.00551,4.96828 -4.03172,8.99449 -9,9c-1.54972,0.00278 -3.07331,-0.39914 -4.42,-1.166l1.127,-1.127c0.28591,-0.28599 0.37142,-0.71604 0.21668,-1.08965c-0.15474,-0.37362 -0.51928,-0.61726 -0.92368,-0.61735h-4c-0.55228,0 -1,0.44772 -1,1v4c-0.0001,0.40443 0.24341,0.7691 0.617,0.924c0.12133,0.05059 0.25155,0.07642 0.383,0.076c0.26519,-0.00006 0.51951,-0.10545 0.707,-0.293l1.411,-1.407c1.75776,1.11747 3.79911,1.70746 5.882,1.7c6.07216,-0.00716 10.99284,-4.92784 11,-11c0,-0.55228 -0.44772,-1 -1,-1z"></path></g></g></svg>