<svg version="1.1" xmlns="http://www.w3.org/2000/svg" xmlns:xlink="http://www.w3.org/1999/xlink" width="512px" height="512px" viewBox="0,0,256,256"><g fill="#ffffff" fill-rule="nonzero" stroke="none" stroke-width="1" stroke-linecap="butt" stroke-linejoin="miter" stroke-miterlimit="10" stroke-dasharray="" stroke-dashoffset="0" font-family="none" font-weight="none" font-size="none" text-anchor="none" style="mix-blend-mode: normal"><g transform="translate(-0.69,-0.545) scale(0.5,0.5)"><path d="M326.82,71.53c-0.56596,0.00604 -1.13076,0.05283 -1.69,0.14c-1.35276,-12.58221 -11.96529,-22.12573 -24.62,-22.14h-172.31c-12.59917,0.01652 -23.18203,9.48086 -24.6,22c-27.76,0.75 -50.09,20.91 -50.09,45.62v301.85c0,25.17 23.18,45.65 51.67,45.65h221.64c28.49,0 51.67,-20.48 51.67,-45.65v-301.82c0,-25.18 -23.18,-45.65 -51.67,-45.65zM126.12,74.28c0,-1.14875 0.93125,-2.08 2.08,-2.08h172.31c1.14875,0 2.08,0.93125 2.08,2.08v19.15c0,1.14875 -0.93125,2.08 -2.08,2.08h-172.31c-1.14875,0 -2.08,-0.93125 -2.08,-2.08zM355.81,419c0,12.66 -13,23 -29,23h-221.63c-16,0 -29,-10.31 -29,-23v-301.82c0.01,-12.18 12.1,-22.18 27.29,-22.93c0.44722,13.3394 11.38311,23.92594 24.73,23.94h172.31c13.41101,-0.01134 24.37725,-10.6939 24.74,-24.1c0.52005,0.07512 1.04457,0.11521 1.57,0.12c16,0 29,10.3 29,23z"></path><path d="M449.87,82.21h-47.72c-6.25901,0 -11.33448,5.071 -11.34,11.33v232.81c0.03395,32.99235 8.03036,65.48912 23.31,94.73l1.88,3.52c1.95744,3.73636 5.82694,6.07753 10.045,6.07753c4.21806,0 8.08756,-2.34117 10.045,-6.07753l1.85,-3.52c15.27964,-29.24088 23.27605,-61.73765 23.31,-94.73v-232.81c-0.00264,-3.01277 -1.20405,-5.90064 -3.33908,-8.0263c-2.13503,-2.12565 -5.02817,-3.31433 -8.04092,-3.3037zM426,392.56c-6.69573,-17.12339 -10.76501,-35.16042 -12.07,-53.5h24.14c-1.30984,18.33887 -5.37896,36.37517 -12.07,53.5zM438.52,316.38h-25v-211.5h25z"></path><path d="M191.59,133.75h-59.09c-6.25901,0 -11.33448,5.071 -11.34,11.33v59.1c0,6.26291 5.07709,11.34 11.34,11.34h59.09c6.26291,0 11.34,-5.07709 11.34,-11.34v-59.1c0,-3.00664 -1.19506,-5.88998 -3.32201,-8.01506c-2.12695,-2.12507 -5.01135,-3.3176 -8.01799,-3.31494zM180.26,192.84h-36.42v-36.42h36.42z"></path><path d="M191.59,239.83h-59.09c-6.26291,0 -11.34,5.07709 -11.34,11.34v59.09c0,6.26291 5.07709,11.34 11.34,11.34h59.09c3.00837,0.00266 5.89429,-1.19124 8.02152,-3.31848c2.12724,-2.12724 3.32113,-5.01316 3.31848,-8.02152v-59.09c0,-6.26291 -5.07709,-11.34 -11.34,-11.34zM180.26,298.93h-36.42v-36.42h36.42z"></path><path d="M298.22,163.81h-58.22c-4.12989,-0.12268 -7.99966,2.01053 -10.10083,5.56806c-2.10117,3.55754 -2.10117,7.97633 0,11.53387c2.10117,3.55754 5.97095,5.69075 10.10083,5.56806h58.21c4.12989,0.12268 7.99966,-2.01053 10.10083,-5.56806c2.10117,-3.55754 2.10117,-7.97633 0,-11.53387c-2.10117,-3.55754 -5.97095,-5.69075 -10.10083,-5.56806z"></path><path d="M298.22,269.38h-58.22c-6.26291,0 -11.34,5.07709 -11.34,11.34c0,6.26291 5.07709,11.34 11.34,11.34h58.21c6.26291,0 11.34,-5.07709 11.34,-11.34c0,-6.26291 -5.07709,-11.34 -11.34,-11.34z"></path><path d="M191.59,345.92h-59.09c-6.25901,0 -11.33448,5.071 -11.34,11.33v59.1c0,6.26291 5.07709,11.34 11.34,11.34h59.09c6.26291,0 11.34,-5.07709 11.34,-11.34v-59.1c0,-3.00664 -1.19506,-5.88998 -3.32201,-8.01506c-2.12695,-2.12507 -5.01135,-3.3176 -8.01799,-3.31494zM180.26,405h-36.42v-36.41h36.42z"></path><path d="M298.22,375.46h-58.22c-6.26291,0 -11.34,5.07709 -11.34,11.34c0,6.26291 5.07709,11.34 11.34,11.34h58.21c6.26291,0 11.34,-5.07709 11.34,-11.34c0,-6.26291 -5.07709,-11.34 -11.34,-11.34z"></path></g></g></svg>